<?xml version="1.0" encoding="UTF-8" standalone="no"?>
<svg
   xmlns:dc="http://purl.org/dc/elements/1.1/"
   xmlns:cc="http://creativecommons.org/ns#"
   xmlns:rdf="http://www.w3.org/1999/02/22-rdf-syntax-ns#"
   xmlns:svg="http://www.w3.org/2000/svg"
   xmlns="http://www.w3.org/2000/svg"
   viewBox="0 0 527.26666 313.51999"
   height="313.51999"
   width="527.26666"
   xml:space="preserve"
   id="svg2"
   version="1.1"><metadata
     id="metadata8"><rdf:RDF><cc:Work
         rdf:about=""><dc:format>image/svg+xml</dc:format><dc:type
           rdf:resource="http://purl.org/dc/dcmitype/StillImage" /></cc:Work></rdf:RDF></metadata><defs
     id="defs6" /><g
     transform="matrix(1.3333333,0,0,-1.3333333,0,313.52)"
     id="g10"><g
       transform="scale(0.1)"
       id="g12"><path
         id="path14"
         style="fill:#2eadc8;fill-opacity:1;fill-rule:nonzero;stroke:none"
         d="m 1895.72,1767.44 v -40.08 c 0,-19.97 -16.18,-36.16 -36.16,-36.16 H 1646.02 V 1824 h 558.92 c 62.62,0 136.66,0 136.66,-68.32 0,-39.41 -24.06,-64.48 -100.07,-64.48 h -215.39 c -19.98,0 -36.17,16.19 -36.17,36.16 v 40.08 z m 613.47,-63.29 v -0.85 c 0.63,-60.38 -2,-121.06 -7.65,-181.86 -4.55,-27.69 -22.58,-49.62 -65.62,-49.62 -70.28,0 -131.86,75.07 -183.8,137.59 9.65,-0.94 18.33,-1.89 26.95,-1.89 62.53,0 175.11,32.67 175.11,139.53 0,53.83 -31.75,100.06 -74.04,124.12 -49.13,27.87 -88.53,32.65 -177.06,32.65 h -176.94 c -19.98,0 -36.17,16.18 -36.17,36.16 v 134.77 h 213.94 c 19.9,-0.08 35.99,-16.22 35.99,-36.13 v -54.76 h 94.55 v 167.83 h -783.53 v -167.83 h 93.52 v 55.67 c 0,19.47 16.33,35.14 35.92,35.22 h 215.36 v -134.77 c 0,-19.98 -16.18,-36.16 -36.16,-36.16 h -388.62 v -82.73 h 45.2 c 19.66,-0.35 35.51,-16.35 35.51,-36.1 v -282.9 c -0.21,-18.65 -17.11,-35.43 -35.51,-35.43 h -52.87 v -82.73 h 182.75 v 232.22 c 0,0 358.37,0.06 365.42,0 103.35,-0.88 122.39,-10.35 177.21,-89.47 73.12,-97.15 146.2,-148.16 240.52,-148.16 19.99,0 38.13,2.68 54.49,7.27 -8.45,-49.87 -18.72,-99.73 -31.32,-149.47 -1.39,-4.62 -10.96,-32.13 -40.21,-40.71 -97.76,-24.63 -259.86,-57.78 -469.28,-57.78 -209.62,0 -371.82,33.2 -469.56,57.85 -27.6,8.23 -37.6,33.37 -39.74,39.85 -39.5,155.79 -58.67,312.79 -57.03,467.77 v 0.85 0.87 c -1.63,154.86 17.51,311.75 56.96,467.42 1.94,6.07 12.08,32.65 41.19,40.54 97.89,24.62 259.55,57.51 468.18,57.51 208.42,0 369.99,-32.84 467.9,-57.42 30.96,-8.26 40.57,-37.68 41.68,-41.48 39.32,-155.4 58.4,-312 56.76,-466.57 z m 0,566.34 c -71.68,19.46 -276.13,80.9 -566.34,80.9 -290.2,0 -494.66,-61.44 -566.33,-80.9 -58.63,-197.92 -82.76,-391.02 -80.9,-566.34 -1.86,-175.29 22.27,-368.41 80.9,-566.32 71.67,-19.46 276.13,-80.9 566.33,-80.9 290.21,0 494.66,61.44 566.34,80.9 58.63,197.91 82.76,391.03 80.9,566.32 1.86,175.32 -22.27,368.42 -80.9,566.34" /><path
         id="path16"
         style="fill:#2eadc8;fill-opacity:1;fill-rule:nonzero;stroke:none"
         d="m 2110.67,1339.42 h -86.19 c -18.98,0 -34.22,16.28 -34.51,35.46 v 184.81 h -94.25 l -0.05,-184.29 c 0,-19.43 -15.21,-35.98 -34.6,-35.98 h -86.05 v -82.8 h 335.65 v 82.8" /><path
         id="path18"
         style="fill:#231f20;fill-opacity:1;fill-rule:nonzero;stroke:none"
         d="M 121.168,658.16 H 0 v 38.11 H 287.836 V 658.16 H 166.68 V 354.961 H 121.168 V 658.16" /><path
         id="path20"
         style="fill:#231f20;fill-opacity:1;fill-rule:nonzero;stroke:none"
         d="m 663.188,525.621 c 0,83.039 -55.75,142.211 -133.68,142.211 -78.508,0 -134.254,-59.172 -134.254,-142.211 0,-82.492 55.746,-142.223 134.254,-142.223 77.93,0 133.68,59.731 133.68,142.223 z m -315.153,0 c 0,104.66 76.801,180.309 181.473,180.309 104.094,0 180.89,-75.649 180.89,-180.309 0,-104.691 -76.796,-180.332 -180.89,-180.332 -104.672,0 -181.473,75.641 -181.473,180.332" /><path
         id="path22"
         style="fill:#231f20;fill-opacity:1;fill-rule:nonzero;stroke:none"
         d="m 933.699,534.148 c 51.199,0 66.551,30.731 66.551,62.012 0,31.281 -15.352,62 -66.551,62 H 866.578 V 534.148 Z M 961,414.68 916.059,496.031 H 866.578 V 354.961 H 821.07 V 696.27 h 112.629 c 77.931,0 111.491,-44.938 111.491,-100.11 0,-51.191 -29.01,-89.89 -82.479,-97.281 l 40.959,-69.391 c 20.48,-34.718 38.68,-44.949 64.28,-44.949 6.26,0 12.51,0.57 19.33,2.27 v -31.848 c -10.79,-2.852 -21.03,-3.981 -31.28,-3.981 -38.68,0 -70.531,19.34 -95,63.7" /><path
         id="path24"
         style="fill:#231f20;fill-opacity:1;fill-rule:nonzero;stroke:none"
         d="m 1180.19,696.27 h 45.51 V 354.961 h -45.51 V 696.27" /><path
         id="path26"
         style="fill:#231f20;fill-opacity:1;fill-rule:nonzero;stroke:none"
         d="m 1627.9,534.148 c 51.18,0 66.54,30.731 66.54,62.012 0,31.281 -15.36,62 -66.54,62 h -67.14 V 534.148 Z m 27.29,-119.468 -44.93,81.351 h -49.5 v -141.07 h -45.5 V 696.27 h 112.64 c 77.93,0 111.48,-44.938 111.48,-100.11 0,-51.191 -29,-89.89 -82.48,-97.281 l 40.96,-69.391 c 20.47,-34.718 38.68,-44.949 64.28,-44.949 6.26,0 12.52,0.57 19.34,2.27 v -31.848 c -10.81,-2.852 -21.05,-3.981 -31.28,-3.981 -38.69,0 -70.54,19.34 -95.01,63.7" /><path
         id="path28"
         style="fill:#231f20;fill-opacity:1;fill-rule:nonzero;stroke:none"
         d="m 1874.39,696.27 h 45.5 V 354.961 h -45.5 V 696.27" /><path
         id="path30"
         style="fill:#231f20;fill-opacity:1;fill-rule:nonzero;stroke:none"
         d="m 2030.36,525.621 c 0,110.348 83.07,178.051 181.48,178.051 43.23,0 89.87,-14.223 118.32,-35.84 v -47.223 c -27.88,25.032 -65.42,44.942 -118.32,44.942 -78.5,0 -134.25,-54.61 -134.25,-139.93 0,-84.769 55.75,-139.941 134.25,-139.941 52.9,0 90.44,19.902 118.32,44.941 v -47.223 c -28.45,-21.617 -75.09,-35.839 -118.32,-35.839 -98.41,0 -181.48,67.691 -181.48,178.062" /><path
         id="path32"
         style="fill:#231f20;fill-opacity:1;fill-rule:nonzero;stroke:none"
         d="m 2444.23,696.27 h 45.51 V 554.059 h 188.28 V 696.27 h 45.51 V 354.961 h -45.51 v 160.98 h -188.28 v -160.98 h -45.51 V 696.27" /><path
         id="path34"
         style="fill:#231f20;fill-opacity:1;fill-rule:nonzero;stroke:none"
         d="M 3035.58,487.5 2975.84,628.012 2916.1,487.5 Z m -73.39,208.77 h 29.58 l 146.77,-341.309 h -46.65 l -40.96,95.559 h -150.18 l -40.96,-95.559 h -44.37 l 146.77,341.309" /><path
         id="path36"
         style="fill:#231f20;fill-opacity:1;fill-rule:nonzero;stroke:none"
         d="m 3343.4,534.148 c 51.2,0 66.55,30.731 66.55,62.012 0,31.281 -15.35,62 -66.55,62 h -67.13 V 534.148 Z m 27.29,-119.468 -44.94,81.351 h -49.48 v -141.07 h -45.51 V 696.27 h 112.64 c 77.93,0 111.49,-44.938 111.49,-100.11 0,-51.191 -29.01,-89.89 -82.49,-97.281 l 40.97,-69.391 c 20.48,-34.718 38.68,-44.949 64.28,-44.949 6.26,0 12.52,0.57 19.33,2.27 v -31.848 c -10.8,-2.852 -21.04,-3.981 -31.28,-3.981 -38.68,0 -70.53,19.34 -95.01,63.7" /><path
         id="path38"
         style="fill:#231f20;fill-opacity:1;fill-rule:nonzero;stroke:none"
         d="m 3696.27,394.77 c 110.93,0 142.22,62.57 142.22,130.851 0,68.25 -31.29,130.828 -142.22,130.828 h -60.86 V 394.77 Z m -106.38,301.5 h 105.82 c 132.54,0 189.99,-76.801 189.99,-170.649 0,-93.871 -57.45,-170.66 -189.99,-170.66 H 3589.89 V 696.27" /><path
         id="path40"
         style="fill:#231f20;fill-opacity:1;fill-rule:nonzero;stroke:none"
         d="m 3917.26,674.422 h -7.72 v -14.613 h 7.72 c 5.25,0 7.39,3.132 7.39,7.39 0,4.102 -2.14,7.223 -7.39,7.223 z m 15.92,-40.231 c -5.42,0 -10.02,2.789 -13.13,8.539 l -5.59,10.34 h -4.92 v -18.23 h -9.2 v 46.32 h 18.39 c 10.51,0 15.11,-6.898 15.11,-13.961 0,-6.25 -3.28,-11.82 -10.34,-13.461 l 4.76,-8.218 c 2.3,-3.778 4.59,-4.918 7.55,-4.918 1.15,0 2.13,0 3.13,0.32 v -5.742 c -1.98,-0.649 -3.78,-0.989 -5.76,-0.989 z m 16.42,23.489 c 0,18.218 -14.94,33.011 -33.16,33.011 -18.23,0 -33.01,-14.793 -33.01,-33.011 0,-18.231 14.78,-33.008 33.01,-33.008 18.22,0 33.16,14.777 33.16,33.008 z m -71.09,0 c 0,21.019 17.08,37.922 37.93,37.922 21.01,0 38.09,-16.903 38.09,-37.922 0,-21.02 -17.08,-37.938 -38.09,-37.938 -20.85,0 -37.93,16.918 -37.93,37.938" /><path
         id="path42"
         style="fill:#2eadc8;fill-opacity:1;fill-rule:nonzero;stroke:none"
         d="m 2607.35,2258.75 h -7.71 v -14.61 h 7.71 c 5.26,0 7.4,3.13 7.4,7.4 0,4.1 -2.14,7.21 -7.4,7.21 z m 15.93,-40.22 c -5.42,0 -10.01,2.78 -13.13,8.54 l -5.59,10.34 h -4.92 v -18.23 h -9.2 v 46.31 h 18.4 c 10.51,0 15.1,-6.89 15.1,-13.95 0,-6.25 -3.29,-11.83 -10.35,-13.47 l 4.77,-8.21 c 2.29,-3.78 4.6,-4.93 7.55,-4.93 1.15,0 2.14,0 3.12,0.33 v -5.74 c -1.97,-0.66 -3.78,-0.99 -5.75,-0.99 z m 16.43,23.48 c 0,18.22 -14.94,33.01 -33.18,33.01 -18.22,0 -33,-14.79 -33,-33.01 0,-18.22 14.78,-33 33,-33 18.24,0 33.18,14.78 33.18,33 z m -71.11,0 c 0,21.02 17.08,37.93 37.93,37.93 21.03,0 38.1,-16.91 38.1,-37.93 0,-21.01 -17.07,-37.94 -38.1,-37.94 -20.85,0 -37.93,16.93 -37.93,37.94" /><path
         id="path44"
         style="fill:#231f20;fill-opacity:1;fill-rule:nonzero;stroke:none"
         d="m 1295.51,131.77 h 17.08 V 78.3789 h 70.7 V 131.77 h 17.09 V 3.62891 h -17.09 V 64.082 h -70.7 V 3.62891 h -17.08 V 131.77" /><path
         id="path46"
         style="fill:#231f20;fill-opacity:1;fill-rule:nonzero;stroke:none"
         d="m 1583.96,67.6992 c 0,31.1914 -20.93,53.4028 -50.19,53.4028 -29.47,0 -50.41,-22.2114 -50.41,-53.4028 0,-30.957 20.94,-53.3906 50.41,-53.3906 29.26,0 50.19,22.4336 50.19,53.3906 z m -118.32,0 c 0,39.3008 28.83,67.7108 68.13,67.7108 39.09,0 67.92,-28.41 67.92,-67.7108 0,-39.3008 -28.83,-67.6874812 -67.92,-67.6874812 -39.3,0 -68.13,28.3866812 -68.13,67.6874812" /><path
         id="path48"
         style="fill:#231f20;fill-opacity:1;fill-rule:nonzero;stroke:none"
         d="m 1667.07,131.77 h 9.82 l 76.25,-95.4614 V 131.77 h 15.59 V 3.62891 h -9.82 L 1682.66,99.1094 V 3.62891 h -15.59 V 131.77" /><path
         id="path50"
         style="fill:#231f20;fill-opacity:1;fill-rule:nonzero;stroke:none"
         d="m 1952.31,67.6992 c 0,31.1914 -20.92,53.4028 -50.18,53.4028 -29.48,0 -50.41,-22.2114 -50.41,-53.4028 0,-30.957 20.93,-53.3906 50.41,-53.3906 29.26,0 50.18,22.4336 50.18,53.3906 z m -118.31,0 c 0,39.3008 28.83,67.7108 68.13,67.7108 39.08,0 67.91,-28.41 67.91,-67.7108 0,-39.3008 -28.83,-67.6874812 -67.91,-67.6874812 -39.3,0 -68.13,28.3866812 -68.13,67.6874812" /><path
         id="path52"
         style="fill:#231f20;fill-opacity:1;fill-rule:nonzero;stroke:none"
         d="m 2035.43,131.77 h 17.08 V 17.9414 h 60.44 V 3.62891 h -77.52 V 131.77" /><path
         id="path54"
         style="fill:#231f20;fill-opacity:1;fill-rule:nonzero;stroke:none"
         d="M 2166.05,62.7891 V 131.77 h 17.51 V 62.5703 c 0,-33.0898 14.96,-47.6094 38.44,-47.6094 23.51,0 38.46,14.5196 38.46,47.6094 V 131.77 h 16.65 V 62.7891 c 0,-43.3477 -22.42,-62.7773812 -55.53,-62.7773812 -33.1,0 -55.53,19.4296812 -55.53,62.7773812" /><path
         id="path56"
         style="fill:#231f20;fill-opacity:1;fill-rule:nonzero;stroke:none"
         d="m 2348.51,131.77 h 17.09 V 17.9414 h 60.44 V 3.62891 h -77.53 V 131.77" /><path
         id="path58"
         style="fill:#231f20;fill-opacity:1;fill-rule:nonzero;stroke:none"
         d="M 2479.14,62.7891 V 131.77 h 17.51 V 62.5703 c 0,-33.0898 14.95,-47.6094 38.45,-47.6094 23.48,0 38.44,14.5196 38.44,47.6094 V 131.77 h 16.66 V 62.7891 c 0,-43.3477 -22.43,-62.7773812 -55.53,-62.7773812 -33.11,0 -55.53,19.4296812 -55.53,62.7773812" /></g></g></svg>